<svg width="16" height="18" viewBox="0 0 1rem 18" fill="none" xmlns="http://www.w3.org/2000/svg">
<path d="M14.0667 8.5008L8.01518 15.635C7.27382 16.509 6.26832 17 5.21988 17C4.17144 17 3.16594 16.509 2.42458 15.635C1.68322 14.761 1.26672 13.5756 1.26672 12.3396C1.26672 11.1036 1.68322 9.9182 2.42458 9.04421L8.47612 1.91C8.97036 1.32734 9.6407 1 10.3397 1C11.0386 1 11.709 1.32734 12.2032 1.91C12.6974 2.49266 12.9751 3.28292 12.9751 4.10693C12.9751 4.93094 12.6974 5.7212 12.2032 6.30386L6.14506 13.4381C5.89794 13.7294 5.56277 13.8931 5.21329 13.8931C4.86381 13.8931 4.52864 13.7294 4.28152 13.4381C4.0344 13.1467 3.89557 12.7516 3.89557 12.3396C3.89557 11.9276 4.0344 11.5325 4.28152 11.2411L9.87213 4.6581" stroke="#1667DE" stroke-width="2" stroke-linecap="round" stroke-linejoin="round"/>
</svg>
