<svg width="16" height="18" viewBox="0 0 16 18" fill="none" xmlns="http://www.w3.org/2000/svg">
<path d="M1.6001 11.4C1.6001 11.4 2.4001 10.6 4.8001 10.6C7.2001 10.6 8.8001 12.2 11.2001 12.2C13.6001 12.2 14.4001 11.4 14.4001 11.4V1.8C14.4001 1.8 13.6001 2.6 11.2001 2.6C8.8001 2.6 7.2001 1 4.8001 1C2.4001 1 1.6001 1.8 1.6001 1.8V11.4Z" fill="#1667DE"/>
<path d="M1.6001 11.4C1.6001 11.4 2.4001 10.6 4.8001 10.6C7.2001 10.6 8.8001 12.2 11.2001 12.2C13.6001 12.2 14.4001 11.4 14.4001 11.4V1.8C14.4001 1.8 13.6001 2.6 11.2001 2.6C8.8001 2.6 7.2001 1 4.8001 1C2.4001 1 1.6001 1.8 1.6001 1.8V11.4ZM1.6001 11.4V17" stroke="#1667DE" stroke-width="2" stroke-linecap="round" stroke-linejoin="round"/>
</svg>
