<svg width="22" height="19" viewBox="0 0 22 19" fill="none" xmlns="http://www.w3.org/2000/svg">
<path d="M2.78631 18.8C2.68509 18.7995 2.58624 18.7684 2.50211 18.7104C2.41799 18.6525 2.35231 18.5702 2.31331 18.474C2.2743 18.3778 2.26368 18.2719 2.28279 18.1695C2.30189 18.0671 2.34987 17.9728 2.42073 17.8983C4.1405 16.103 5.55133 15.5434 6.91583 14.9997C11.0711 13.3476 11.8795 12.3054 11.9851 11.8307C12.0041 11.7277 11.9958 11.6213 11.9609 11.5228C11.926 11.4242 11.8658 11.3373 11.7868 11.2711C11.3749 10.8123 10.2421 11.706 9.23292 12.4937C8.11812 13.3662 7.06772 14.1936 6.12031 14.0345C5.92533 13.9997 5.7396 13.9232 5.57507 13.8099C5.41055 13.6966 5.27093 13.549 5.16515 13.3768C5.03034 13.1888 4.93741 12.9725 4.89291 12.7434C4.84841 12.5142 4.85347 12.2777 4.9077 12.0508C5.21151 10.8601 6.88492 10.0008 8.65619 9.0939C10.1597 8.32217 11.8615 7.44968 12.0778 6.61431C12.1019 6.50456 12.1012 6.39056 12.0757 6.28114C12.0503 6.17169 12.0008 6.06975 11.931 5.98314C11.865 5.85294 11.7699 5.74077 11.6535 5.65591C11.5371 5.5711 11.4028 5.51597 11.2616 5.49522C10.2318 5.37056 8.51719 7.01742 7.00081 8.46804C4.75838 10.6081 2.43617 12.8252 0.837396 11.0988C0.511883 10.7661 0.269658 10.357 0.131536 9.90659C-0.00658535 9.45621 -0.0364724 8.97801 0.0444438 8.5131C0.420324 6.24569 3.32438 3.49033 7.81178 1.14071C10.5768 -0.307247 14.2687 -0.384153 16.7917 0.952424C18.3905 1.79839 19.3662 3.09254 19.5979 4.6943C19.9249 6.89544 19.0521 8.03574 18.2437 8.59532C16.9049 9.53677 15.0462 9.3909 14.2738 8.93475C14.2151 8.89992 14.1637 8.85357 14.1225 8.79824C14.0812 8.74295 14.051 8.67985 14.0333 8.61249C13.9979 8.47647 14.0163 8.33148 14.0846 8.20946C14.1529 8.08744 14.2654 7.99832 14.3974 7.96178C14.5295 7.92524 14.6702 7.9442 14.7887 8.01452C15.2392 8.27974 16.6656 8.42294 17.6645 7.72016C18.4677 7.15268 18.7766 6.19002 18.581 4.85345C18.3467 3.26227 17.2217 2.37121 16.3206 1.89652C14.0756 0.705793 10.7673 0.795961 8.28033 2.08746C4.14308 4.2435 1.37547 6.78406 1.0588 8.69079C1.0035 8.99221 1.02159 9.30308 1.11144 9.59556C1.2013 9.88805 1.36012 10.153 1.57371 10.3668C2.47222 11.3348 4.40568 9.47575 6.29536 7.67773C8.18508 5.87975 9.88682 4.2435 11.3826 4.42912C11.6716 4.46921 11.948 4.57558 12.1918 4.74032C12.4355 4.90511 12.6402 5.1241 12.7909 5.38117C12.9425 5.5929 13.0465 5.83669 13.0955 6.09489C13.1444 6.3531 13.1371 6.61928 13.0741 6.87422C12.742 8.17367 10.981 9.07532 9.11703 10.0327C7.69851 10.7593 6.0894 11.5841 5.90661 12.3107C5.88829 12.3928 5.88875 12.4782 5.90797 12.5602C5.92716 12.6421 5.96461 12.7183 6.01731 12.7827C6.04325 12.834 6.07975 12.8788 6.1242 12.9141C6.16866 12.9494 6.22003 12.9742 6.27476 12.9869C6.78967 13.0718 7.79119 12.2842 8.59185 11.661C9.94346 10.6002 11.4779 9.3962 12.5257 10.5631C12.7194 10.7557 12.862 10.9963 12.94 11.2618C13.018 11.5273 13.0287 11.809 12.9711 12.08C12.6905 13.3211 10.8806 14.5675 7.2711 15.9995C5.94783 16.5299 4.69661 17.0205 3.13644 18.6515C3.04228 18.745 2.91709 18.7981 2.78631 18.8Z" fill="white"/>
<path d="M20.3188 12.7616C19.9864 12.7616 19.6613 12.66 19.3849 12.4697C19.1084 12.2794 18.8929 12.009 18.7657 11.6925C18.6384 11.3761 18.6051 11.0279 18.67 10.692C18.7348 10.3561 18.895 10.0475 19.1301 9.80532C19.3652 9.56316 19.6648 9.3982 19.9909 9.33139C20.317 9.26457 20.655 9.29886 20.9622 9.42994C21.2694 9.56103 21.532 9.78298 21.7167 10.0677C21.9014 10.3525 22 10.6873 22 11.0299C21.9993 11.4889 21.822 11.929 21.5068 12.2536C21.1917 12.5782 20.7645 12.7609 20.3188 12.7616ZM20.3188 10.3589C20.19 10.3589 20.0641 10.3982 19.957 10.472C19.8498 10.5457 19.7664 10.6505 19.7171 10.7731C19.6678 10.8957 19.6549 11.0306 19.68 11.1607C19.7051 11.2909 19.7672 11.4104 19.8583 11.5043C19.9494 11.5981 20.0654 11.662 20.1918 11.6879C20.3181 11.7138 20.4491 11.7005 20.5681 11.6497C20.6871 11.5989 20.7888 11.5129 20.8604 11.4026C20.932 11.2923 20.9702 11.1625 20.9702 11.0299C20.9702 10.9417 20.9534 10.8545 20.9206 10.7731C20.8879 10.6917 20.8399 10.6177 20.7794 10.5554C20.7189 10.4931 20.6471 10.4437 20.5681 10.41C20.4891 10.3763 20.4044 10.3589 20.3188 10.3589Z" fill="white"/>
</svg>
