<svg width="15" height="18" viewBox="0 0 15 18" fill="none" xmlns="http://www.w3.org/2000/svg">
<path fill-rule="evenodd" clip-rule="evenodd" d="M6.69289 0.292893C7.08342 -0.0976311 7.71658 -0.0976311 8.10711 0.292893L11.3071 3.49289C11.6976 3.88342 11.6976 4.51658 11.3071 4.90711C10.9166 5.29763 10.2834 5.29763 9.89289 4.90711L8.4 3.41421V11.4C8.4 11.9523 7.95228 12.4 7.4 12.4C6.84772 12.4 6.4 11.9523 6.4 11.4V3.41421L4.90711 4.90711C4.51658 5.29763 3.88342 5.29763 3.49289 4.90711C3.10237 4.51658 3.10237 3.88342 3.49289 3.49289L6.69289 0.292893ZM1 8C1.55228 8 2 8.44772 2 9V15.4C2 15.5591 2.06321 15.7117 2.17574 15.8243C2.28826 15.9368 2.44087 16 2.6 16H12.2C12.3591 16 12.5117 15.9368 12.6243 15.8243C12.7368 15.7117 12.8 15.5591 12.8 15.4V9C12.8 8.44772 13.2477 8 13.8 8C14.3523 8 14.8 8.44772 14.8 9V15.4C14.8 16.0896 14.5261 16.7509 14.0385 17.2385C13.5509 17.7261 12.8896 18 12.2 18H2.6C1.91044 18 1.24912 17.7261 0.761522 17.2385C0.273928 16.7509 0 16.0896 0 15.4V9C0 8.44772 0.447715 8 1 8Z" fill="black"/>
</svg>
