<svg width="13" height="14" viewBox="0 0 13 14" fill="none" xmlns="http://www.w3.org/2000/svg">
<path d="M1 3.4H2.2M2.2 3.4H11.8M2.2 3.4V11.8C2.2 12.1183 2.32643 12.4235 2.55147 12.6485C2.77652 12.8736 3.08174 13 3.4 13H9.4C9.71826 13 10.0235 12.8736 10.2485 12.6485C10.4736 12.4235 10.6 12.1183 10.6 11.8V3.4M4 3.4V2.2C4 1.88174 4.12643 1.57652 4.35147 1.35147C4.57652 1.12643 4.88174 1 5.2 1H7.6C7.91826 1 8.22348 1.12643 8.44853 1.35147C8.67357 1.57652 8.8 1.88174 8.8 2.2V3.4M5.2 6.4V10M7.6 6.4V10" stroke="#1A1A1A" stroke-width="2" stroke-linecap="round" stroke-linejoin="round"/>
</svg>
